<?xml version="1.0" encoding="UTF-8" standalone="no"?>
<!DOCTYPE svg PUBLIC "-//W3C//DTD SVG 1.1//EN"
 "http://www.w3.org/Graphics/SVG/1.1/DTD/svg11.dtd">
<!-- Generated by graphviz version 2.38.0 (20140413.2041)
 -->
<!-- Title: G Pages: 1 -->
<svg width="382pt" height="261pt"
 viewBox="0.00 0.00 382.00 261.00" xmlns="http://www.w3.org/2000/svg" xmlns:xlink="http://www.w3.org/1999/xlink">
<g id="graph0" class="graph" transform="scale(1 1) rotate(0) translate(4 257)">
<title>G</title>
<polygon fill="white" stroke="none" points="-4,4 -4,-257 378,-257 378,4 -4,4"/>
<g id="clust1" class="cluster"><title>cluster_0</title>
<polygon fill="lightgrey" stroke="black" points="137,-131 137,-206 207,-206 207,-131 137,-131"/>
<text text-anchor="middle" x="172" y="-190.8" font-family="Times New Roman,serif" font-size="14.00">foo.o</text>
</g>
<g id="clust2" class="cluster"><title>cluster_1</title>
<polygon fill="lightgrey" stroke="black" points="137,-48 137,-123 207,-123 207,-48 137,-48"/>
<text text-anchor="middle" x="172" y="-107.8" font-family="Times New Roman,serif" font-size="14.00">bar.o</text>
</g>
<g id="clust3" class="cluster"><title>cluster_3</title>
<polygon fill="lightgrey" stroke="black" points="258,-131 258,-206 366,-206 366,-131 258,-131"/>
<text text-anchor="middle" x="312" y="-190.8" font-family="Times New Roman,serif" font-size="14.00">wrap.o</text>
</g>
<g id="clust4" class="cluster"><title>cluster_2</title>
<polygon fill="none" stroke="black" points="8,-8 8,-245 116,-245 116,-8 8,-8"/>
<text text-anchor="middle" x="62" y="-229.8" font-family="Times New Roman,serif" font-size="14.00">library</text>
</g>
<!-- foo -->
<g id="node1" class="node"><title>foo</title>
<path fill="white" stroke="black" d="M187,-175C187,-175 157,-175 157,-175 151,-175 145,-169 145,-163 145,-163 145,-151 145,-151 145,-145 151,-139 157,-139 157,-139 187,-139 187,-139 193,-139 199,-145 199,-151 199,-151 199,-163 199,-163 199,-169 193,-175 187,-175"/>
<text text-anchor="middle" x="172" y="-153.3" font-family="Times New Roman,serif" font-size="14.00">foo</text>
</g>
<!-- __wrap__bar -->
<g id="node3" class="node"><title>__wrap__bar</title>
<path fill="white" stroke="black" d="M346,-175C346,-175 278,-175 278,-175 272,-175 266,-169 266,-163 266,-163 266,-151 266,-151 266,-145 272,-139 278,-139 278,-139 346,-139 346,-139 352,-139 358,-145 358,-151 358,-151 358,-163 358,-163 358,-169 352,-175 346,-175"/>
<text text-anchor="middle" x="312" y="-153.3" font-family="Times New Roman,serif" font-size="14.00">__wrap__bar</text>
</g>
<!-- foo&#45;&gt;__wrap__bar -->
<g id="edge1" class="edge"><title>foo&#45;&gt;__wrap__bar</title>
<path fill="none" stroke="black" d="M199.282,-157C215.264,-157 236.288,-157 255.782,-157"/>
<polygon fill="black" stroke="black" points="255.802,-160.5 265.802,-157 255.802,-153.5 255.802,-160.5"/>
<text text-anchor="middle" x="232.5" y="-160.8" font-family="Times New Roman,serif" font-size="14.00">bar(i)</text>
</g>
<!-- bar -->
<g id="node2" class="node"><title>bar</title>
<path fill="white" stroke="black" d="M187,-92C187,-92 157,-92 157,-92 151,-92 145,-86 145,-80 145,-80 145,-68 145,-68 145,-62 151,-56 157,-56 157,-56 187,-56 187,-56 193,-56 199,-62 199,-68 199,-68 199,-80 199,-80 199,-86 193,-92 187,-92"/>
<text text-anchor="middle" x="172" y="-70.3" font-family="Times New Roman,serif" font-size="14.00">bar</text>
</g>
<!-- bar_e -->
<g id="node4" class="node"><title>bar_e</title>
<path fill="white" stroke="black" d="M77,-214C77,-214 47,-214 47,-214 41,-214 35,-208 35,-202 35,-202 35,-190 35,-190 35,-184 41,-178 47,-178 47,-178 77,-178 77,-178 83,-178 89,-184 89,-190 89,-190 89,-202 89,-202 89,-208 83,-214 77,-214"/>
<text text-anchor="middle" x="62" y="-192.3" font-family="Times New Roman,serif" font-size="14.00">bar</text>
</g>
<!-- bar_e&#45;&gt;__wrap__bar -->
<g id="edge2" class="edge"><title>bar_e&#45;&gt;__wrap__bar</title>
<path fill="none" stroke="black" stroke-dasharray="5,2" d="M89.1099,-203.651C118.237,-211.011 166.579,-219.706 207,-210 231.155,-204.2 256.024,-191.802 275.384,-180.454"/>
<polygon fill="black" stroke="black" points="277.387,-183.334 284.143,-175.173 273.772,-177.339 277.387,-183.334"/>
</g>
<!-- foo_e -->
<g id="node5" class="node"><title>foo_e</title>
<path fill="white" stroke="black" d="M77,-160C77,-160 47,-160 47,-160 41,-160 35,-154 35,-148 35,-148 35,-136 35,-136 35,-130 41,-124 47,-124 47,-124 77,-124 77,-124 83,-124 89,-130 89,-136 89,-136 89,-148 89,-148 89,-154 83,-160 77,-160"/>
<text text-anchor="middle" x="62" y="-138.3" font-family="Times New Roman,serif" font-size="14.00">foo</text>
</g>
<!-- foo_e&#45;&gt;foo -->
<g id="edge3" class="edge"><title>foo_e&#45;&gt;foo</title>
<path fill="none" stroke="black" stroke-dasharray="5,2" d="M89.1438,-145.631C102.839,-147.533 119.826,-149.892 134.769,-151.968"/>
<polygon fill="black" stroke="black" points="134.336,-155.441 144.723,-153.35 135.299,-148.508 134.336,-155.441"/>
</g>
<!-- real -->
<g id="node6" class="node"><title>real</title>
<path fill="white" stroke="black" d="M92,-106C92,-106 32,-106 32,-106 26,-106 20,-100 20,-94 20,-94 20,-82 20,-82 20,-76 26,-70 32,-70 32,-70 92,-70 92,-70 98,-70 104,-76 104,-82 104,-82 104,-94 104,-94 104,-100 98,-106 92,-106"/>
<text text-anchor="middle" x="62" y="-84.3" font-family="Times New Roman,serif" font-size="14.00">__real__bar</text>
</g>
<!-- real&#45;&gt;bar -->
<g id="edge4" class="edge"><title>real&#45;&gt;bar</title>
<path fill="none" stroke="black" stroke-dasharray="5,2" d="M104.138,-82.6673C114.314,-81.3482 125.137,-79.9452 135.044,-78.661"/>
<polygon fill="black" stroke="black" points="135.504,-82.1307 144.971,-77.3741 134.604,-75.1888 135.504,-82.1307"/>
</g>
<!-- wrap -->
<g id="node7" class="node"><title>wrap</title>
<path fill="white" stroke="black" d="M96,-52C96,-52 28,-52 28,-52 22,-52 16,-46 16,-40 16,-40 16,-28 16,-28 16,-22 22,-16 28,-16 28,-16 96,-16 96,-16 102,-16 108,-22 108,-28 108,-28 108,-40 108,-40 108,-46 102,-52 96,-52"/>
<text text-anchor="middle" x="62" y="-30.3" font-family="Times New Roman,serif" font-size="14.00">__wrap__bar</text>
</g>
<!-- wrap&#45;&gt;__wrap__bar -->
<g id="edge5" class="edge"><title>wrap&#45;&gt;__wrap__bar</title>
<path fill="none" stroke="black" stroke-dasharray="5,2" d="M108.011,-28.7985C137.562,-27.3348 176.283,-29.2342 207,-44 246.077,-62.7844 277.474,-103.301 295.179,-130.36"/>
<polygon fill="black" stroke="black" points="292.333,-132.407 300.651,-138.97 298.241,-128.653 292.333,-132.407"/>
</g>
</g>
</svg>
