<?xml version="1.0" encoding="UTF-8" standalone="no"?>
<!DOCTYPE svg PUBLIC "-//W3C//DTD SVG 1.1//EN"
 "http://www.w3.org/Graphics/SVG/1.1/DTD/svg11.dtd">
<!-- Generated by graphviz version 2.38.0 (20140413.2041)
 -->
<!-- Title: G Pages: 1 -->
<svg width="306pt" height="156pt"
 viewBox="0.00 0.00 306.00 156.00" xmlns="http://www.w3.org/2000/svg" xmlns:xlink="http://www.w3.org/1999/xlink">
<g id="graph0" class="graph" transform="scale(1 1) rotate(0) translate(4 152)">
<title>G</title>
<polygon fill="white" stroke="none" points="-4,4 -4,-152 302,-152 302,4 -4,4"/>
<g id="clust3" class="cluster"><title>cluster_2</title>
<polygon fill="none" stroke="black" points="8,-11 8,-140 78,-140 78,-11 8,-11"/>
<text text-anchor="middle" x="43" y="-124.8" font-family="Times New Roman,serif" font-size="14.00">library</text>
</g>
<g id="clust1" class="cluster"><title>cluster_0</title>
<polygon fill="lightgrey" stroke="black" points="99,-8 99,-83 169,-83 169,-8 99,-8"/>
<text text-anchor="middle" x="134" y="-67.8" font-family="Times New Roman,serif" font-size="14.00">foo.o</text>
</g>
<g id="clust2" class="cluster"><title>cluster_1</title>
<polygon fill="lightgrey" stroke="black" points="220,-23 220,-98 290,-98 290,-23 220,-23"/>
<text text-anchor="middle" x="255" y="-82.8" font-family="Times New Roman,serif" font-size="14.00">bar.o</text>
</g>
<!-- foo -->
<g id="node1" class="node"><title>foo</title>
<path fill="white" stroke="black" d="M149,-52C149,-52 119,-52 119,-52 113,-52 107,-46 107,-40 107,-40 107,-28 107,-28 107,-22 113,-16 119,-16 119,-16 149,-16 149,-16 155,-16 161,-22 161,-28 161,-28 161,-40 161,-40 161,-46 155,-52 149,-52"/>
<text text-anchor="middle" x="134" y="-30.3" font-family="Times New Roman,serif" font-size="14.00">foo</text>
</g>
<!-- bar -->
<g id="node2" class="node"><title>bar</title>
<path fill="white" stroke="black" d="M270,-67C270,-67 240,-67 240,-67 234,-67 228,-61 228,-55 228,-55 228,-43 228,-43 228,-37 234,-31 240,-31 240,-31 270,-31 270,-31 276,-31 282,-37 282,-43 282,-43 282,-55 282,-55 282,-61 276,-67 270,-67"/>
<text text-anchor="middle" x="255" y="-45.3" font-family="Times New Roman,serif" font-size="14.00">bar</text>
</g>
<!-- foo&#45;&gt;bar -->
<g id="edge1" class="edge"><title>foo&#45;&gt;bar</title>
<path fill="none" stroke="black" d="M161.115,-37.2918C177.778,-39.3922 199.607,-42.1437 217.916,-44.4516"/>
<polygon fill="black" stroke="black" points="217.587,-47.9377 227.946,-45.7159 218.462,-40.9926 217.587,-47.9377"/>
<text text-anchor="middle" x="194.5" y="-47.8" font-family="Times New Roman,serif" font-size="14.00">bar(i)</text>
</g>
<!-- bar_e -->
<g id="node3" class="node"><title>bar_e</title>
<polygon fill="none" stroke="black" points="70,-109 16,-109 16,-73 70,-73 70,-109"/>
<text text-anchor="middle" x="43" y="-87.3" font-family="Times New Roman,serif" font-size="14.00">bar</text>
</g>
<!-- bar_e&#45;&gt;bar -->
<g id="edge2" class="edge"><title>bar_e&#45;&gt;bar</title>
<path fill="none" stroke="black" stroke-dasharray="5,2" d="M70.2318,-93.0728C95.7887,-94.4143 135.568,-94.6939 169,-87 185.928,-83.1043 203.622,-75.7833 218.456,-68.5992"/>
<polygon fill="black" stroke="black" points="220.385,-71.5474 227.754,-63.9353 217.246,-65.2904 220.385,-71.5474"/>
</g>
<!-- foo_e -->
<g id="node4" class="node"><title>foo_e</title>
<polygon fill="none" stroke="black" points="70,-55 16,-55 16,-19 70,-19 70,-55"/>
<text text-anchor="middle" x="43" y="-33.3" font-family="Times New Roman,serif" font-size="14.00">foo</text>
</g>
<!-- foo_e&#45;&gt;foo -->
<g id="edge3" class="edge"><title>foo_e&#45;&gt;foo</title>
<path fill="none" stroke="black" stroke-dasharray="5,2" d="M70.2216,-36.1161C78.5505,-35.8354 87.9135,-35.5198 96.8161,-35.2197"/>
<polygon fill="black" stroke="black" points="97.0895,-38.7126 106.966,-34.8776 96.8536,-31.7165 97.0895,-38.7126"/>
</g>
</g>
</svg>
