<?xml version="1.0" encoding="UTF-8" standalone="no"?>
<!DOCTYPE svg PUBLIC "-//W3C//DTD SVG 1.1//EN"
 "http://www.w3.org/Graphics/SVG/1.1/DTD/svg11.dtd">
<!-- Generated by graphviz version 2.38.0 (20140413.2041)
 -->
<!-- Title: G Pages: 1 -->
<svg width="295pt" height="539pt"
 viewBox="0.00 0.00 295.00 539.00" xmlns="http://www.w3.org/2000/svg" xmlns:xlink="http://www.w3.org/1999/xlink">
<g id="graph0" class="graph" transform="scale(1 1) rotate(0) translate(4 535)">
<title>G</title>
<polygon fill="white" stroke="none" points="-4,4 -4,-535 291,-535 291,4 -4,4"/>
<g id="clust2" class="cluster"><title>cluster_1</title>
<polygon fill="lightgrey" stroke="black" points="19,-340 19,-415 235,-415 235,-340 19,-340"/>
<text text-anchor="middle" x="127" y="-399.8" font-family="Times New Roman,serif" font-size="14.00">objects</text>
</g>
<g id="clust1" class="cluster"><title>cluster_0</title>
<polygon fill="lightgrey" stroke="black" points="8,-448 8,-523 252,-523 252,-448 8,-448"/>
<text text-anchor="middle" x="130" y="-507.8" font-family="Times New Roman,serif" font-size="14.00">source</text>
</g>
<!-- foo_cpp -->
<g id="node1" class="node"><title>foo_cpp</title>
<path fill="white" stroke="black" d="M66,-492C66,-492 28,-492 28,-492 22,-492 16,-486 16,-480 16,-480 16,-468 16,-468 16,-462 22,-456 28,-456 28,-456 66,-456 66,-456 72,-456 78,-462 78,-468 78,-468 78,-480 78,-480 78,-486 72,-492 66,-492"/>
<text text-anchor="middle" x="47" y="-470.3" font-family="Times New Roman,serif" font-size="14.00">foo.cpp</text>
</g>
<!-- foo_o -->
<g id="node4" class="node"><title>foo_o</title>
<path fill="white" stroke="black" d="M69,-384C69,-384 39,-384 39,-384 33,-384 27,-378 27,-372 27,-372 27,-360 27,-360 27,-354 33,-348 39,-348 39,-348 69,-348 69,-348 75,-348 81,-354 81,-360 81,-360 81,-372 81,-372 81,-378 75,-384 69,-384"/>
<text text-anchor="middle" x="54" y="-362.3" font-family="Times New Roman,serif" font-size="14.00">foo.o</text>
</g>
<!-- foo_cpp&#45;&gt;foo_o -->
<g id="edge5" class="edge"><title>foo_cpp&#45;&gt;foo_o</title>
<path fill="none" stroke="black" d="M48.1247,-455.969C49.2203,-439.378 50.904,-413.883 52.1885,-394.431"/>
<polygon fill="black" stroke="black" points="55.6882,-394.55 52.8549,-384.341 48.7034,-394.088 55.6882,-394.55"/>
<text text-anchor="middle" x="73.5" y="-426.8" font-family="Times New Roman,serif" font-size="14.00">compile</text>
</g>
<!-- bar_cpp -->
<g id="node2" class="node"><title>bar_cpp</title>
<path fill="white" stroke="black" d="M144,-492C144,-492 108,-492 108,-492 102,-492 96,-486 96,-480 96,-480 96,-468 96,-468 96,-462 102,-456 108,-456 108,-456 144,-456 144,-456 150,-456 156,-462 156,-468 156,-468 156,-480 156,-480 156,-486 150,-492 144,-492"/>
<text text-anchor="middle" x="126" y="-470.3" font-family="Times New Roman,serif" font-size="14.00">bar.cpp</text>
</g>
<!-- bar_o -->
<g id="node5" class="node"><title>bar_o</title>
<path fill="white" stroke="black" d="M141,-384C141,-384 111,-384 111,-384 105,-384 99,-378 99,-372 99,-372 99,-360 99,-360 99,-354 105,-348 111,-348 111,-348 141,-348 141,-348 147,-348 153,-354 153,-360 153,-360 153,-372 153,-372 153,-378 147,-384 141,-384"/>
<text text-anchor="middle" x="126" y="-362.3" font-family="Times New Roman,serif" font-size="14.00">bar.o</text>
</g>
<!-- bar_cpp&#45;&gt;bar_o -->
<g id="edge6" class="edge"><title>bar_cpp&#45;&gt;bar_o</title>
<path fill="none" stroke="black" d="M126,-455.969C126,-439.378 126,-413.883 126,-394.431"/>
<polygon fill="black" stroke="black" points="129.5,-394.341 126,-384.341 122.5,-394.341 129.5,-394.341"/>
<text text-anchor="middle" x="148.5" y="-426.8" font-family="Times New Roman,serif" font-size="14.00">compile</text>
</g>
<!-- wrap_cpp -->
<g id="node3" class="node"><title>wrap_cpp</title>
<path fill="white" stroke="black" d="M232,-492C232,-492 186,-492 186,-492 180,-492 174,-486 174,-480 174,-480 174,-468 174,-468 174,-462 180,-456 186,-456 186,-456 232,-456 232,-456 238,-456 244,-462 244,-468 244,-468 244,-480 244,-480 244,-486 238,-492 232,-492"/>
<text text-anchor="middle" x="209" y="-470.3" font-family="Times New Roman,serif" font-size="14.00">wrap.cpp</text>
</g>
<!-- wrap_o -->
<g id="node6" class="node"><title>wrap_o</title>
<path fill="white" stroke="black" d="M215,-384C215,-384 183,-384 183,-384 177,-384 171,-378 171,-372 171,-372 171,-360 171,-360 171,-354 177,-348 183,-348 183,-348 215,-348 215,-348 221,-348 227,-354 227,-360 227,-360 227,-372 227,-372 227,-378 221,-384 215,-384"/>
<text text-anchor="middle" x="199" y="-362.3" font-family="Times New Roman,serif" font-size="14.00">wrap.o</text>
</g>
<!-- wrap_cpp&#45;&gt;wrap_o -->
<g id="edge7" class="edge"><title>wrap_cpp&#45;&gt;wrap_o</title>
<path fill="none" stroke="black" d="M207.393,-455.969C205.828,-439.378 203.423,-413.883 201.588,-394.431"/>
<polygon fill="black" stroke="black" points="205.06,-393.968 200.636,-384.341 198.091,-394.625 205.06,-393.968"/>
<text text-anchor="middle" x="227.5" y="-426.8" font-family="Times New Roman,serif" font-size="14.00">compile</text>
</g>
<!-- binary -->
<g id="node7" class="node"><title>binary</title>
<path fill="white" stroke="black" d="M137,-36C137,-36 107,-36 107,-36 101,-36 95,-30 95,-24 95,-24 95,-12 95,-12 95,-6 101,-0 107,-0 107,-0 137,-0 137,-0 143,-0 149,-6 149,-12 149,-12 149,-24 149,-24 149,-30 143,-36 137,-36"/>
<text text-anchor="middle" x="122" y="-14.3" font-family="Times New Roman,serif" font-size="14.00">binary</text>
</g>
<!-- foo_o&#45;&gt;binary -->
<g id="edge1" class="edge"><title>foo_o&#45;&gt;binary</title>
<path fill="none" stroke="black" d="M45.8141,-347.853C38.523,-330.986 29,-304.304 29,-280 29,-280 29,-280 29,-104 29,-71.9107 59.5409,-48.6858 85.6192,-34.7037"/>
<polygon fill="black" stroke="black" points="87.2678,-37.792 94.5999,-30.1441 84.0988,-31.5504 87.2678,-37.792"/>
<text text-anchor="middle" x="39" y="-188.3" font-family="Times New Roman,serif" font-size="14.00">link</text>
</g>
<!-- outline -->
<g id="node10" class="node"><title>outline</title>
<path fill="white" stroke="black" d="M173,-297C173,-297 143,-297 143,-297 137,-297 131,-291 131,-285 131,-285 131,-273 131,-273 131,-267 137,-261 143,-261 143,-261 173,-261 173,-261 179,-261 185,-267 185,-273 185,-273 185,-285 185,-285 185,-291 179,-297 173,-297"/>
<text text-anchor="middle" x="158" y="-275.3" font-family="Times New Roman,serif" font-size="14.00">outline</text>
</g>
<!-- foo_o&#45;&gt;outline -->
<g id="edge9" class="edge"><title>foo_o&#45;&gt;outline</title>
<path fill="none" stroke="black" d="M75.046,-347.799C90.5521,-335.126 111.832,-317.734 128.956,-303.738"/>
<polygon fill="black" stroke="black" points="131.457,-306.214 136.985,-297.175 127.028,-300.794 131.457,-306.214"/>
<text text-anchor="middle" x="122" y="-318.8" font-family="Times New Roman,serif" font-size="14.00">nm</text>
</g>
<!-- bar_o&#45;&gt;binary -->
<g id="edge2" class="edge"><title>bar_o&#45;&gt;binary</title>
<path fill="none" stroke="black" d="M115.677,-347.761C106.66,-331.044 95,-304.661 95,-280 95,-280 95,-280 95,-104 95,-83.7408 102.053,-61.9861 108.95,-45.5571"/>
<polygon fill="black" stroke="black" points="112.3,-46.6369 113.159,-36.0769 105.902,-43.7961 112.3,-46.6369"/>
<text text-anchor="middle" x="105" y="-188.3" font-family="Times New Roman,serif" font-size="14.00">link</text>
</g>
<!-- bar_o&#45;&gt;outline -->
<g id="edge10" class="edge"><title>bar_o&#45;&gt;outline</title>
<path fill="none" stroke="black" d="M132.476,-347.799C136.9,-336.047 142.851,-320.238 147.895,-306.842"/>
<polygon fill="black" stroke="black" points="151.286,-307.767 151.534,-297.175 144.735,-305.301 151.286,-307.767"/>
<text text-anchor="middle" x="153" y="-318.8" font-family="Times New Roman,serif" font-size="14.00">nm</text>
</g>
<!-- wrap_o&#45;&gt;binary -->
<g id="edge3" class="edge"><title>wrap_o&#45;&gt;binary</title>
<path fill="none" stroke="black" d="M224.321,-347.929C243.654,-332.657 267,-308.347 267,-280 267,-280 267,-280 267,-104 267,-54.0234 202.099,-32.8725 159.138,-24.3463"/>
<polygon fill="black" stroke="black" points="159.742,-20.8987 149.273,-22.5308 158.475,-27.7831 159.742,-20.8987"/>
<text text-anchor="middle" x="277" y="-188.3" font-family="Times New Roman,serif" font-size="14.00">link</text>
</g>
<!-- wrap_o&#45;&gt;outline -->
<g id="edge11" class="edge"><title>wrap_o&#45;&gt;outline</title>
<path fill="none" stroke="black" d="M190.703,-347.799C184.979,-335.932 177.259,-319.928 170.758,-306.449"/>
<polygon fill="black" stroke="black" points="173.782,-304.662 166.285,-297.175 167.477,-307.703 173.782,-304.662"/>
<text text-anchor="middle" x="190" y="-318.8" font-family="Times New Roman,serif" font-size="14.00">nm</text>
</g>
<!-- wrap_gen_o -->
<g id="node8" class="node"><title>wrap_gen_o</title>
<path fill="white" stroke="black" d="M199.5,-123C199.5,-123 140.5,-123 140.5,-123 134.5,-123 128.5,-117 128.5,-111 128.5,-111 128.5,-99 128.5,-99 128.5,-93 134.5,-87 140.5,-87 140.5,-87 199.5,-87 199.5,-87 205.5,-87 211.5,-93 211.5,-99 211.5,-99 211.5,-111 211.5,-111 211.5,-117 205.5,-123 199.5,-123"/>
<text text-anchor="middle" x="170" y="-101.3" font-family="Times New Roman,serif" font-size="14.00">wrap_gen.o</text>
</g>
<!-- wrap_gen_o&#45;&gt;binary -->
<g id="edge4" class="edge"><title>wrap_gen_o&#45;&gt;binary</title>
<path fill="none" stroke="black" d="M160.286,-86.799C153.52,-74.8169 144.372,-58.6168 136.714,-45.0569"/>
<polygon fill="black" stroke="black" points="139.664,-43.1619 131.699,-36.1754 133.569,-46.604 139.664,-43.1619"/>
<text text-anchor="middle" x="159" y="-57.8" font-family="Times New Roman,serif" font-size="14.00">link</text>
</g>
<!-- wrap_gen_cpp -->
<g id="node9" class="node"><title>wrap_gen_cpp</title>
<path fill="white" stroke="black" d="M218.5,-210C218.5,-210 145.5,-210 145.5,-210 139.5,-210 133.5,-204 133.5,-198 133.5,-198 133.5,-186 133.5,-186 133.5,-180 139.5,-174 145.5,-174 145.5,-174 218.5,-174 218.5,-174 224.5,-174 230.5,-180 230.5,-186 230.5,-186 230.5,-198 230.5,-198 230.5,-204 224.5,-210 218.5,-210"/>
<text text-anchor="middle" x="182" y="-188.3" font-family="Times New Roman,serif" font-size="14.00">wrap_gen.cpp</text>
</g>
<!-- wrap_gen_cpp&#45;&gt;wrap_gen_o -->
<g id="edge8" class="edge"><title>wrap_gen_cpp&#45;&gt;wrap_gen_o</title>
<path fill="none" stroke="black" d="M179.572,-173.799C177.929,-162.163 175.724,-146.548 173.845,-133.237"/>
<polygon fill="black" stroke="black" points="177.288,-132.588 172.425,-123.175 170.357,-133.567 177.288,-132.588"/>
<text text-anchor="middle" x="199.5" y="-144.8" font-family="Times New Roman,serif" font-size="14.00">compile</text>
</g>
<!-- outline&#45;&gt;wrap_gen_cpp -->
<g id="edge12" class="edge"><title>outline&#45;&gt;wrap_gen_cpp</title>
<path fill="none" stroke="black" d="M162.857,-260.799C166.175,-249.047 170.639,-233.238 174.421,-219.842"/>
<polygon fill="black" stroke="black" points="177.801,-220.75 177.15,-210.175 171.065,-218.848 177.801,-220.75"/>
<text text-anchor="middle" x="198.5" y="-231.8" font-family="Times New Roman,serif" font-size="14.00">mw&#45;wrap</text>
</g>
</g>
</svg>
